<svg xmlns="http://www.w3.org/2000/svg" width="27" height="27" viewBox="0 0 27 27" fill="none">
  <path d="M26.2574 13.4311C26.2533 16.6084 25.0876 19.6745 22.9797 22.0519C20.8719 24.4293 17.9675 25.954 14.8136 26.3386C14.7434 26.3466 14.6723 26.3395 14.605 26.318C14.5377 26.2965 14.4757 26.2609 14.4231 26.2136C14.3706 26.1664 14.3286 26.1085 14.3 26.0439C14.2715 25.9793 14.2569 25.9093 14.2574 25.8386V16.4311H17.2574C17.3945 16.4314 17.5302 16.4035 17.656 16.3492C17.7819 16.2948 17.8952 16.2152 17.989 16.1152C18.0828 16.0152 18.155 15.897 18.2012 15.7679C18.2473 15.6389 18.2665 15.5017 18.2574 15.3649C18.2353 15.1077 18.1167 14.8685 17.9253 14.6952C17.734 14.522 17.4842 14.4276 17.2261 14.4311H14.2574V11.4311C14.2574 10.9007 14.4681 10.392 14.8432 10.0169C15.2182 9.64184 15.727 9.43112 16.2574 9.43112H18.2574C18.3945 9.43142 18.5302 9.40353 18.656 9.34919C18.7819 9.29484 18.8952 9.2152 18.989 9.11521C19.0828 9.01521 19.155 8.89701 19.2012 8.76793C19.2473 8.63885 19.2665 8.50166 19.2574 8.36487C19.2353 8.10729 19.1163 7.86768 18.9244 7.69438C18.7326 7.52109 18.4821 7.42701 18.2236 7.43112H16.2574C15.1965 7.43112 14.1791 7.85255 13.429 8.60269C12.6788 9.35284 12.2574 10.3703 12.2574 11.4311V14.4311H9.25739C9.1203 14.4308 8.98462 14.4587 8.85876 14.5131C8.73291 14.5674 8.61957 14.647 8.52579 14.747C8.43201 14.847 8.35979 14.9652 8.31362 15.0943C8.26745 15.2234 8.24831 15.3606 8.25739 15.4974C8.27951 15.755 8.39849 15.9946 8.59035 16.1679C8.7822 16.3412 9.03264 16.4352 9.29114 16.4311H12.2574V25.8411C12.2578 25.9117 12.2433 25.9815 12.2148 26.0461C12.1863 26.1106 12.1445 26.1684 12.0921 26.2156C12.0396 26.2629 11.9778 26.2985 11.9107 26.3201C11.8435 26.3417 11.7725 26.3489 11.7024 26.3411C8.46408 25.9468 5.49184 24.351 3.37398 21.8697C1.25612 19.3884 0.146994 16.2024 0.26614 12.9424C0.51614 6.19237 5.98364 0.704871 12.7386 0.442371C14.4875 0.374628 16.2321 0.660309 17.868 1.28233C19.5039 1.90434 20.9975 2.84992 22.2596 4.06249C23.5216 5.27506 24.5262 6.72972 25.2131 8.33946C25.9 9.9492 26.2552 11.6809 26.2574 13.4311Z" fill="#FCFCFC"/>
</svg>