<svg width="19" height="18" viewBox="0 0 19 18" fill="none" xmlns="http://www.w3.org/2000/svg">
<path d="M17.8125 8.40625H16.0038C15.8631 6.88633 15.1952 5.46348 14.1159 4.38414C13.0365 3.3048 11.6137 2.63693 10.0938 2.49621V0.6875C10.0938 0.530028 10.0312 0.379005 9.91985 0.267655C9.8085 0.156306 9.65747 0.09375 9.5 0.09375C9.34253 0.09375 9.19151 0.156306 9.08016 0.267655C8.96881 0.379005 8.90625 0.530028 8.90625 0.6875V2.49621C7.38633 2.63693 5.96348 3.3048 4.88414 4.38414C3.8048 5.46348 3.13693 6.88633 2.99621 8.40625H1.1875C1.03003 8.40625 0.879005 8.46881 0.767655 8.58016C0.656306 8.69151 0.59375 8.84253 0.59375 9C0.59375 9.15747 0.656306 9.3085 0.767655 9.41985C0.879005 9.53119 1.03003 9.59375 1.1875 9.59375H2.99621C3.13693 11.1137 3.8048 12.5365 4.88414 13.6159C5.96348 14.6952 7.38633 15.3631 8.90625 15.5038V17.3125C8.90625 17.47 8.96881 17.621 9.08016 17.7323C9.19151 17.8437 9.34253 17.9062 9.5 17.9062C9.65747 17.9062 9.8085 17.8437 9.91985 17.7323C10.0312 17.621 10.0938 17.47 10.0938 17.3125V15.5038C11.6137 15.3631 13.0365 14.6952 14.1159 13.6159C15.1952 12.5365 15.8631 11.1137 16.0038 9.59375H17.8125C17.97 9.59375 18.121 9.53119 18.2323 9.41985C18.3437 9.3085 18.4062 9.15747 18.4062 9C18.4062 8.84253 18.3437 8.69151 18.2323 8.58016C18.121 8.46881 17.97 8.40625 17.8125 8.40625ZM9.5 14.3438C8.44311 14.3438 7.40995 14.0303 6.53117 13.4432C5.6524 12.856 4.96747 12.0214 4.56302 11.045C4.15856 10.0685 4.05274 8.99407 4.25893 7.95749C4.46512 6.9209 4.97406 5.96873 5.7214 5.2214C6.46873 4.47406 7.4209 3.96512 8.45749 3.75893C9.49407 3.55274 10.5685 3.65856 11.545 4.06302C12.5214 4.46747 13.356 5.1524 13.9432 6.03117C14.5303 6.90995 14.8438 7.94311 14.8438 9C14.8422 10.4168 14.2787 11.7751 13.2769 12.7769C12.2751 13.7787 10.9168 14.3422 9.5 14.3438ZM9.5 6.03125C8.91284 6.03125 8.33886 6.20536 7.85065 6.53157C7.36244 6.85779 6.98193 7.32144 6.75723 7.86391C6.53253 8.40638 6.47374 9.00329 6.58829 9.57917C6.70284 10.1551 6.98559 10.684 7.40078 11.0992C7.81596 11.5144 8.34494 11.7972 8.92083 11.9117C9.49671 12.0263 10.0936 11.9675 10.6361 11.7428C11.1786 11.5181 11.6422 11.1376 11.9684 10.6493C12.2946 10.1611 12.4688 9.58716 12.4688 9C12.4688 8.21264 12.156 7.45753 11.5992 6.90078C11.0425 6.34403 10.2874 6.03125 9.5 6.03125ZM9.5 10.7812C9.1477 10.7812 8.80332 10.6768 8.51039 10.4811C8.21747 10.2853 7.98916 10.0071 7.85434 9.68165C7.71952 9.35617 7.68425 8.99802 7.75298 8.6525C7.82171 8.30697 7.99135 7.98958 8.24047 7.74047C8.48958 7.49135 8.80697 7.32171 9.1525 7.25298C9.49802 7.18425 9.85617 7.21952 10.1817 7.35434C10.5071 7.48916 10.7853 7.71747 10.9811 8.01039C11.1768 8.30332 11.2812 8.6477 11.2812 9C11.2812 9.47242 11.0936 9.92548 10.7595 10.2595C10.4255 10.5936 9.97242 10.7812 9.5 10.7812Z" fill="black"/>
</svg>
